<mxfile host="app.diagrams.net" agent="Mozilla/5.0 (Windows NT 10.0; Win64; x64) AppleWebKit/537.36 (KHTML, like Gecko) Chrome/128.0.0.0 YaBrowser/24.10.0.0 Safari/537.36" version="24.9.1">
  <diagram name="Страница — 1" id="5p0IXrnAWed0-nxmWOMT">
    <mxGraphModel dx="1434" dy="791" grid="1" gridSize="10" guides="1" tooltips="1" connect="1" arrows="1" fold="1" page="1" pageScale="1" pageWidth="827" pageHeight="1169" math="0" shadow="0">
      <root>
        <mxCell id="0" />
        <mxCell id="1" parent="0" />
        <mxCell id="knWbekO6bPIF2mh6V6mH-1" value="№" style="rounded=0;whiteSpace=wrap;html=1;" vertex="1" parent="1">
          <mxGeometry x="80" y="40" width="40" height="20" as="geometry" />
        </mxCell>
        <mxCell id="knWbekO6bPIF2mh6V6mH-2" value="Заинтересованные лица" style="rounded=0;whiteSpace=wrap;html=1;" vertex="1" parent="1">
          <mxGeometry x="120" y="40" width="160" height="20" as="geometry" />
        </mxCell>
        <mxCell id="knWbekO6bPIF2mh6V6mH-3" value="Описание" style="rounded=0;whiteSpace=wrap;html=1;" vertex="1" parent="1">
          <mxGeometry x="280" y="40" width="120" height="20" as="geometry" />
        </mxCell>
        <mxCell id="knWbekO6bPIF2mh6V6mH-6" value="" style="rounded=0;whiteSpace=wrap;html=1;align=left;fontStyle=1" vertex="1" parent="1">
          <mxGeometry x="120" y="60" width="160" height="70" as="geometry" />
        </mxCell>
        <mxCell id="knWbekO6bPIF2mh6V6mH-7" value="&lt;div style=&quot;text-align: justify;&quot;&gt;&lt;br&gt;&lt;/div&gt;" style="rounded=0;whiteSpace=wrap;html=1;align=left;" vertex="1" parent="1">
          <mxGeometry x="280" y="60" width="120" height="70" as="geometry" />
        </mxCell>
        <mxCell id="knWbekO6bPIF2mh6V6mH-9" value="1" style="rounded=0;whiteSpace=wrap;html=1;align=center;" vertex="1" parent="1">
          <mxGeometry x="80" y="60" width="40" height="70" as="geometry" />
        </mxCell>
        <mxCell id="knWbekO6bPIF2mh6V6mH-14" value="&lt;div&gt;Сотрудники деканата&lt;/div&gt;&lt;div&gt;Преподаватели&lt;/div&gt;&lt;div&gt;Системный&lt;/div&gt;&lt;div&gt;администратор&lt;/div&gt;" style="text;strokeColor=none;align=center;fillColor=none;html=1;verticalAlign=middle;whiteSpace=wrap;rounded=0;" vertex="1" parent="1">
          <mxGeometry x="245" y="55" width="190" height="80" as="geometry" />
        </mxCell>
        <mxCell id="knWbekO6bPIF2mh6V6mH-17" value="Прямые пользователи системы&amp;nbsp;" style="text;strokeColor=none;align=center;fillColor=none;html=1;verticalAlign=middle;whiteSpace=wrap;rounded=0;" vertex="1" parent="1">
          <mxGeometry x="120" y="60" width="160" height="30" as="geometry" />
        </mxCell>
        <mxCell id="knWbekO6bPIF2mh6V6mH-18" value="2" style="rounded=0;whiteSpace=wrap;html=1;" vertex="1" parent="1">
          <mxGeometry x="80" y="130" width="40" height="30" as="geometry" />
        </mxCell>
        <mxCell id="knWbekO6bPIF2mh6V6mH-19" value="" style="rounded=0;whiteSpace=wrap;html=1;" vertex="1" parent="1">
          <mxGeometry x="120" y="130" width="160" height="30" as="geometry" />
        </mxCell>
        <mxCell id="knWbekO6bPIF2mh6V6mH-20" value="Непрямые пользователи системы" style="text;strokeColor=none;align=center;fillColor=none;html=1;verticalAlign=middle;whiteSpace=wrap;rounded=0;" vertex="1" parent="1">
          <mxGeometry x="130" y="120" width="130" height="50" as="geometry" />
        </mxCell>
        <mxCell id="knWbekO6bPIF2mh6V6mH-21" value="" style="rounded=0;whiteSpace=wrap;html=1;" vertex="1" parent="1">
          <mxGeometry x="280" y="130" width="120" height="30" as="geometry" />
        </mxCell>
        <mxCell id="knWbekO6bPIF2mh6V6mH-22" value="Руководство факультета" style="text;strokeColor=none;align=center;fillColor=none;html=1;verticalAlign=middle;whiteSpace=wrap;rounded=0;" vertex="1" parent="1">
          <mxGeometry x="260" y="130" width="120" height="30" as="geometry" />
        </mxCell>
        <mxCell id="knWbekO6bPIF2mh6V6mH-23" value="3" style="rounded=0;whiteSpace=wrap;html=1;" vertex="1" parent="1">
          <mxGeometry x="80" y="160" width="40" height="70" as="geometry" />
        </mxCell>
        <mxCell id="knWbekO6bPIF2mh6V6mH-24" value="" style="rounded=0;whiteSpace=wrap;html=1;" vertex="1" parent="1">
          <mxGeometry x="120" y="160" width="160" height="70" as="geometry" />
        </mxCell>
        <mxCell id="knWbekO6bPIF2mh6V6mH-25" value="&lt;div&gt;Лица, на которых воздействуют последствия&lt;/div&gt;&lt;div&gt;реализации системы&lt;/div&gt;" style="text;strokeColor=none;align=center;fillColor=none;html=1;verticalAlign=middle;whiteSpace=wrap;rounded=0;" vertex="1" parent="1">
          <mxGeometry x="120" y="160" width="150" height="70" as="geometry" />
        </mxCell>
        <mxCell id="knWbekO6bPIF2mh6V6mH-26" value="" style="rounded=0;whiteSpace=wrap;html=1;" vertex="1" parent="1">
          <mxGeometry x="280" y="160" width="120" height="70" as="geometry" />
        </mxCell>
        <mxCell id="knWbekO6bPIF2mh6V6mH-29" value="Студенты" style="text;strokeColor=none;align=center;fillColor=none;html=1;verticalAlign=middle;whiteSpace=wrap;rounded=0;" vertex="1" parent="1">
          <mxGeometry x="270" y="150" width="80" height="40" as="geometry" />
        </mxCell>
        <mxCell id="knWbekO6bPIF2mh6V6mH-30" value="4" style="rounded=0;whiteSpace=wrap;html=1;" vertex="1" parent="1">
          <mxGeometry x="80" y="230" width="40" height="60" as="geometry" />
        </mxCell>
        <mxCell id="knWbekO6bPIF2mh6V6mH-32" value="" style="rounded=0;whiteSpace=wrap;html=1;" vertex="1" parent="1">
          <mxGeometry x="120" y="230" width="160" height="60" as="geometry" />
        </mxCell>
        <mxCell id="knWbekO6bPIF2mh6V6mH-33" value="&lt;div&gt;Лица, которые воздействуют на реализацию&lt;/div&gt;&lt;div&gt;системы&lt;/div&gt;" style="text;strokeColor=none;align=center;fillColor=none;html=1;verticalAlign=middle;whiteSpace=wrap;rounded=0;" vertex="1" parent="1">
          <mxGeometry x="110" y="235" width="150" height="50" as="geometry" />
        </mxCell>
        <mxCell id="knWbekO6bPIF2mh6V6mH-34" value="" style="rounded=0;whiteSpace=wrap;html=1;" vertex="1" parent="1">
          <mxGeometry x="280" y="230" width="120" height="60" as="geometry" />
        </mxCell>
        <mxCell id="knWbekO6bPIF2mh6V6mH-35" value="&lt;div&gt;Администратор&lt;/div&gt;&lt;div&gt;Исполнитель&lt;/div&gt;&lt;div&gt;Руководство факультет&lt;/div&gt;" style="text;strokeColor=none;align=center;fillColor=none;html=1;verticalAlign=middle;whiteSpace=wrap;rounded=0;" vertex="1" parent="1">
          <mxGeometry x="280" y="245" width="90" height="30" as="geometry" />
        </mxCell>
      </root>
    </mxGraphModel>
  </diagram>
</mxfile>
